<?xml version="1.0" encoding="utf-8"?>
<!-- Generator: Adobe Illustrator 18.0.0, SVG Export Plug-In . SVG Version: 6.00 Build 0)  -->
<!DOCTYPE svg PUBLIC "-//W3C//DTD SVG 1.1//EN" "http://www.w3.org/Graphics/SVG/1.1/DTD/svg11.dtd">
<svg version="1.1" id="Layer_5" xmlns="http://www.w3.org/2000/svg" xmlns:xlink="http://www.w3.org/1999/xlink" x="0px" y="0px"
	 viewBox="176 160 176 176.5" enable-background="new 176 160 176 176.5" xml:space="preserve">
<path fill="#fff" style="opacity:0.7;" d="M248.5,334.1l-0.1,0.1c-2.4,1.4-5.1,2.3-8.1,2.3c-8.7,0-15.8-7.1-15.8-15.8c0-6.1,3.5-11.3,8.5-13.9l0,0
	l81.6-43.5c0,0-0.2-0.1-0.1-0.1c2.7-1.3,4.5-4,4.5-7.2c0-2.9-1.6-5.5-3.9-6.8l-95.5-51.1c-1.1-0.6-2.3-0.8-3.5-0.8
	c-4.3,0-7.7,3.4-7.9,7.5l0,99H208c0,0.1,0,0.1,0,0.2c0,8.8-7.2,16-16,16c-8.8,0-16-7.2-16-16c0,0,0,0,0,0V192.6
	c0-18,14.6-32.6,32.6-32.6c6.1,0,11.9,1.7,16.8,4.7c0.2,0.1,0.3,0.1,0.4,0.1l110.4,63.6c2.3,1.4,4.5,3,6.5,5
	c12.5,12.5,12.5,32.8,0,45.3c-1.8,1.8-3.9,3.4-6,4.7l-87.5,50.4C248.9,333.9,248.7,334,248.5,334.1L248.5,334.1z"/>
</svg>
